<?xml version="1.0" encoding="utf-8"?>
<!-- Generator: Adobe Illustrator 16.0.0, SVG Export Plug-In . SVG Version: 6.00 Build 0)  -->
<!DOCTYPE svg PUBLIC "-//W3C//DTD SVG 1.1//EN" "http://www.w3.org/Graphics/SVG/1.1/DTD/svg11.dtd">
<svg version="1.1" id="Layer_1" xmlns="http://www.w3.org/2000/svg" xmlns:xlink="http://www.w3.org/1999/xlink" x="0px" y="0px"
	 width="400px" height="100px" viewBox="0 0 400 100" enable-background="new 0 0 400 100" xml:space="preserve">
<g>
	<path fill="none" d="M154.2,41.4c0-1.3,0-2.6,0-3.9c0-0.9,0.1-1.8-0.3-2.7c-1.1-2.8-3.8-2.7-6.2-2.7c-3,0-5.9,0-8.9,0
		c-2.7,0-5.5,0-8.2,0c-0.1,0-1.3,0-1.3,0c0,0.5,0,0.9,0,1.4c0,5.8,0,11.6,0,17.5c0,1.6,0,3.2,0,4.7c4.9,0,9.7,0,14.6,0
		c2,0,4.1,0,6.1,0c1.8,0,3.5-1.1,4.1-2.9c0.2-0.8,0.2-1.7,0.2-2.5C154.2,47.3,154.2,44.3,154.2,41.4z"/>
	<path d="M157.2,26.1c-4.2-3-10-2.2-14.9-2.2c-6,0-12.1,0-18.1,0c-0.2,0-3.1,0-3.1,0c0,0.8,0,1.7,0,2.5c0,11.1,0,22.3,0,33.4
		c0,8.3,0,16.5,0,24.8c0,4.3,6.2,5.6,7.9,1.7c0.5-1.2,0.4-2.7,0.4-4c0-5.7,0-11.4,0-17.1c0-0.1,0-1.3,0-1.3c0.5,0,1,0,1.5,0
		c2.8,0,5.6,0,8.4,0c2.9,0,5.9,0,8.8,0c2.6,0,5.2,0,7.6-1.3c4.2-2.1,6.8-6.4,6.8-11.1c0-2.3,0-4.7,0-7c0-2.6,0-5.3,0-7.9
		C162.4,32.4,160.6,28.6,157.2,26.1z M154.1,52.8c-0.5,1.8-2.2,2.9-4.1,2.9c-2,0-4.1,0-6.1,0c-4.9,0-9.7,0-14.6,0c0-1.6,0-3.2,0-4.7
		c0-5.8,0-11.6,0-17.5c0-0.5,0-0.9,0-1.4c0,0,1.2,0,1.3,0c2.7,0,5.5,0,8.2,0c3,0,5.9,0,8.9,0c2.4,0,5.2-0.2,6.2,2.7
		c0.3,0.8,0.3,1.8,0.3,2.7c0,1.3,0,2.6,0,3.9c0,3,0,5.9,0,8.9C154.2,51.1,154.3,52,154.1,52.8z"/>
	<path d="M219.6,32.5c0.9-0.8,2.1-1.6,2.8-2.6c1.4-2.1,0-5.2-2.3-5.9c-1.5-0.5-3.2,0-4.4,1c-1.1,1-2.3,2-3.4,2.9
		c-7.6,6.5-15.1,12.9-22.7,19.4c0-0.2,0-0.4,0-0.6c0-5.5,0-11,0-16.6c0-0.7,0-1.4,0-2.2c0-1.9-1.3-3.7-3.2-4.1c-2.6-0.5-5,1.5-5,4.1
		c0,0.2,0,0.4,0,0.6c0,10.1,0,20.2,0,30.2c0,8.6,0,17.2,0,25.8c0,2.5,2.3,4.4,4.7,4.1c2-0.3,3.5-2.1,3.5-4.1c0-1.9,0-3.7,0-5.6
		c0-4.6,0-9.3,0-13.9c7.5,6.5,15.1,13,22.6,19.5c1.1,1,2.3,2,3.4,2.9c1.2,1,2.8,1.5,4.3,1c2.3-0.7,3.8-3.8,2.5-5.9
		c-0.6-1-1.8-1.8-2.7-2.5c-1.8-1.6-3.6-3.1-5.4-4.7c-7.5-6.5-15-12.9-22.4-19.4c7.4-6.3,14.8-12.6,22.3-18.9
		C216,35.6,217.8,34,219.6,32.5z"/>
	<path d="M282.1,53.9c-0.1-3.7-1.5-7-4.3-9.4c-2-1.7-4.4-2.8-7-3c-1.4-0.1-2.8,0-4.2,0c-2.2,0-4.4,0.3-6.4,1.1
		c-1.3,0.5-2.5,1.3-3.7,2c-2.1,1.3-4.3,2.6-6.4,3.9c0-1.3,0.2-2.7-0.2-3.9c-0.7-2.5-3.6-3.8-5.9-2.5c-2,1.2-2.1,3.1-2.1,5.2
		c0,11.2,0,22.3,0,33.5c0,1.3,0,2.6,0,3.9c0,1.7,1.1,3.3,2.7,3.9c2.4,0.9,5.1-0.7,5.5-3.3c0.2-1.5,0-3,0-4.5c0-3,0-6.1,0-9.1
		c0-3,0-6.1,0-9.2c0-1,0-2,0-3c0-0.1-0.1-1,0-1.1c3.7-2.4,7.5-4.8,11.2-7.3c1.5-1,2.9-1.4,4.7-1.4c1.1,0,2.2,0,3.3,0
		c2.8,0,4.4,1.6,4.6,4.4c0.1,3.5,0.3,7.1,0.4,10.6c0.2,5.9,0.5,11.7,0.7,17.6c0.1,1.8-0.1,3.9,1.4,5.2c2,1.8,5.2,1.3,6.5-1.1
		c0.4-0.8,0.5-1.6,0.4-2.5C282.8,74,282.5,64,282.1,53.9z"/>
	<path d="M335.3,80.4c-2.3,0-4.5,0-6.8,0c-0.1,0-1.5,0-1.5,0c0-0.2,0-0.5,0-0.7c0-1.3,0-2.7,0-4c0-12,0-24,0-35.9
		c0-3.8,0-7.6,0-11.4c0-2.5-1.7-4.5-4.3-4.5c-2.7,0-5.3,0-8,0c-2.5,0-5.9-0.6-7.6,1.6c-1.6,2-0.7,5.1,1.6,6.2
		c1.1,0.5,2.4,0.4,3.5,0.4c0.5,0,6.5,0,6.5,0c0,1,0,2,0,3.1c0,11.7,0,23.4,0,35.2c0,3.4,0,6.7,0,10.1c0,0.1-5.8,0.1-6.4,0.1
		c-1.2,0-2.5-0.1-3.5,0.4c-2.3,1.1-3.1,4.2-1.6,6.2c1.5,2,3.7,1.7,5.8,1.7c2.9,0,5.7,0,8.6,0c4.6,0,9.1,0,13.7,0
		c2.4,0,4.3-2.1,4.1-4.5C339.3,82.1,337.4,80.4,335.3,80.4z"/>
	<path d="M395.7,80.4c-2.3,0-4.5,0-6.8,0c-0.1,0-1.5,0-1.5,0c0-0.2,0-0.5,0-0.7c0-1.3,0-2.7,0-4c0-12,0-24,0-35.9
		c0-3.8,0-7.6,0-11.4c0-2.5-1.7-4.5-4.3-4.5c-2.7,0-5.3,0-8,0c-2.5,0-5.9-0.6-7.6,1.6c-1.6,2-0.7,5.1,1.6,6.2
		c1.1,0.5,2.4,0.4,3.5,0.4c0.5,0,6.5,0,6.5,0c0,1,0,2,0,3.1c0,11.7,0,23.4,0,35.2c0,3.4,0,6.7,0,10.1c0,0.1-5.8,0.1-6.4,0.1
		c-1.2,0-2.5-0.1-3.5,0.4c-2.3,1.1-3.1,4.2-1.6,6.2c1.5,2,3.7,1.7,5.8,1.7c2.9,0,5.7,0,8.6,0c4.6,0,9.1,0,13.7,0
		c2.4,0,4.3-2.1,4.1-4.5C399.7,82.1,397.8,80.4,395.7,80.4z"/>
</g>
<path fill="none" stroke="#000000" stroke-width="3" stroke-miterlimit="10" d="M95.7,97c0,1.8-5,1.2-6,1.2c-4.4,0-8.7,0-13.1,0
	c-12.7,0-25.4,0-38,0c-10.2,0-20.4,0-30.7,0c-1,0-5.4,0.6-5.4-1.2c0-1.9,0-3.8,0-5.7c0-10.7,0-21.3,0-32c0-12.7,0-25.3,0-38
	c0-4.4,0-8.8,0-13.2c0-1.2,0-2.5,0-3.7c0-0.5-0.1-1.1,0-1.5C2.8,1.8,4.1,1.9,5,1.9c1.2,0,2.4,0,3.6,0c4.4,0,8.8,0,13.2,0
	c12.7,0,25.4,0,38.1,0c10.2,0,20.4,0,30.6,0c1,0,5.3-0.6,5.3,1.2c0,1.9,0,3.9,0,5.8c0,10.7,0,21.4,0,32.1c0,12.6,0,25.3,0,37.9
	C95.7,84.9,95.7,91,95.7,97z"/>
<line fill="none" stroke="#000000" stroke-width="2" stroke-miterlimit="10" x1="2.5" y1="32.6" x2="57.2" y2="98.1"/>
</svg>
